<svg xmlns="http://www.w3.org/2000/svg" xmlns:xlink="http://www.w3.org/1999/xlink" id="a" width="1319.84"
    height="289.87" viewBox="0 0 1319.84 289.87">
    <defs>
        <style>
            .c {
                fill: url(#b);
            }

            .d {
                fill: #ffdb2c;
            }

            .e {
                fill: #4b5357;
            }
        </style>
        <linearGradient id="b" x1="1079.93" y1="248.54" x2="1216.99" y2="11.14"
            gradientTransform="matrix(1, 0, 0, 1, 0, 0)" gradientUnits="userSpaceOnUse">
            <stop offset="0" stop-color="#008fa9"></stop>
            <stop offset=".11" stop-color="#2aa07f"></stop>
            <stop offset=".24" stop-color="#56b254"></stop>
            <stop offset=".3" stop-color="#68ba44"></stop>
            <stop offset=".4" stop-color="#74bd3f"></stop>
            <stop offset=".56" stop-color="#93c535"></stop>
            <stop offset=".81" stop-color="#cad918"></stop>
            <stop offset="1" stop-color="#f5ea03"></stop>
        </linearGradient>
    </defs>
    <path class="e" d="M59.24,228.22v-56.36L12.23,92.72h20.06l35.67,59.94,35.57-59.94h20.06l-46.91,79.13v56.36h-17.44Z">
    </path>
    <path class="e"
        d="M177.45,210.53c-5.1,3.08-11.11,4.61-18.03,4.61-10.27,0-18.19-3.3-23.74-9.88-4.81-5.69-7.53-13.42-8.18-23.14h80.28c.51-12.05-1.09-22.43-4.8-31.15-3.72-8.72-9.27-15.43-16.67-20.14-7.4-4.7-16.36-7.06-26.89-7.06s-18.98,2.21-26.51,6.63c-7.52,4.42-13.39,10.7-17.59,18.82-4.2,8.12-6.3,17.74-6.3,28.84s2.13,19.87,6.4,27.81c4.27,7.94,10.23,14.11,17.88,18.54,7.66,4.42,16.62,6.63,26.89,6.63s19.3-2.46,27.48-7.38c8.17-4.93,14.3-11.87,18.37-20.84l-16.57-5.55c-2.91,5.77-6.92,10.2-12.02,13.27Zm-41.77-61.72c5.55-6.65,13.66-9.98,24.33-9.98,9.95,0,17.44,3.09,22.48,9.27,3.98,4.88,6.42,11.75,7.38,20.56h-62.01c1.04-8.24,3.64-14.86,7.82-19.85Z">
    </path>
    <path class="e" d="M225.42,228.22V89.9h17.25V228.22h-17.25Z"></path>
    <path class="e" d="M270.75,228.22V89.9h17.25V228.22h-17.25Z"></path>
    <path class="e"
        d="M355.83,231.04c-10.4,0-19.37-2.29-26.89-6.87-7.53-4.58-13.33-10.9-17.4-18.96-4.07-8.06-6.11-17.36-6.11-27.9s2.07-19.93,6.2-27.99c4.13-8.06,9.98-14.33,17.54-18.82,7.56-4.48,16.44-6.73,26.65-6.73s19.48,2.29,27.04,6.87c7.56,4.58,13.36,10.88,17.39,18.92,4.04,8.03,6.06,17.28,6.06,27.76s-2.04,19.93-6.11,27.99c-4.07,8.06-9.89,14.36-17.44,18.91-7.56,4.55-16.54,6.82-26.94,6.82Zm0-15.9c10.79,0,18.85-3.51,24.18-10.54,5.33-7.03,7.99-16.12,7.99-27.29s-2.68-20.54-8.04-27.38c-5.36-6.84-13.41-10.26-24.13-10.26-7.3,0-13.31,1.6-18.03,4.8-4.72,3.2-8.24,7.62-10.56,13.27-2.33,5.64-3.49,12.17-3.49,19.57,0,11.42,2.72,20.58,8.14,27.48,5.43,6.9,13.41,10.35,23.94,10.35Z">
    </path>
    <path class="e"
        d="M440.25,228.22l-31.98-101.72,17.15,.09,23.36,74.33,23.55-74.33h15.22l23.45,74.33,23.46-74.33h17.06l-31.98,101.62h-14.35l-25.29-77.25-25.3,77.25h-14.34Z">
    </path>
    <path class="e"
        d="M654.5,149.93c-3.75-8.09-9.13-14.47-16.14-19.15-7.01-4.67-15.36-7.01-25.05-7.01s-18.11,2.34-24.86,7.01c-2.22,1.54-4.19,3.32-6.06,5.22v-43.29h-17.35V228.22h15.41v-11.65c2.34,2.77,4.96,5.27,7.95,7.37,6.72,4.74,14.99,7.1,24.81,7.1s18.14-2.35,25.15-7.06c7.01-4.71,12.39-11.12,16.14-19.24,3.75-8.12,5.62-17.27,5.62-27.43s-1.88-19.29-5.62-27.38Zm-16.09,46.91c-2.26,5.8-5.67,10.4-10.23,13.79-4.55,3.39-10.26,5.08-17.1,5.08s-12.83-1.65-17.35-4.94c-4.52-3.29-7.87-7.84-10.03-13.64-2.17-5.8-3.25-12.4-3.25-19.81s1.1-14.08,3.3-19.85c2.2-5.77,5.53-10.27,9.98-13.5,4.46-3.23,10.08-4.85,16.86-4.85s12.95,1.69,17.54,5.08c4.59,3.39,8.01,7.97,10.27,13.74,2.26,5.77,3.39,12.23,3.39,19.38s-1.13,13.73-3.39,19.52Z">
    </path>
    <path class="e"
        d="M719.62,125.99c-3.55,.22-7.04,.88-10.46,1.98-3.43,1.1-6.5,2.71-9.21,4.84-2.46,1.69-4.67,3.86-6.64,6.5-.84,1.12-1.57,2.31-2.28,3.52v-16.22h-15.41v101.62h17.35v-51c0-4.01,.36-7.95,1.07-11.81,.71-3.86,1.99-7.43,3.83-10.73,1.84-3.29,4.44-6.13,7.8-8.52,3.68-2.57,7.69-4.07,12.02-4.52,4.33-.44,8.3-.22,11.92,.66v-15.71c-3.1-.63-6.43-.83-9.98-.61Z">
    </path>
    <path class="e" d="M744.14,108.62v-17.31h17.25v17.31h-17.25Zm0,119.59V126.6h17.25v101.62h-17.25Z"></path>
    <path class="e"
        d="M828.75,231.04c-10.6,0-19.59-2.3-26.99-6.92s-13.05-10.96-16.96-19.06c-3.91-8.09-5.9-17.31-5.96-27.66,.06-10.54,2.1-19.84,6.11-27.9,4.01-8.06,9.73-14.36,17.16-18.91s16.38-6.82,26.84-6.82c11.05,0,20.56,2.63,28.54,7.9,7.98,5.27,13.32,12.48,16.04,21.64l-17.06,4.99c-2.26-5.9-5.86-10.48-10.81-13.74-4.94-3.26-10.58-4.9-16.91-4.9-7.17,0-13.09,1.62-17.74,4.85-4.65,3.23-8.11,7.68-10.37,13.36-2.26,5.68-3.43,12.19-3.49,19.52,.13,11.29,2.83,20.4,8.1,27.33,5.26,6.93,13.1,10.4,23.5,10.4,6.85,0,12.52-1.52,17.01-4.57,4.49-3.04,7.93-7.45,10.32-13.22l17.45,4.42c-3.62,9.47-9.27,16.72-16.96,21.73-7.69,5.02-16.96,7.53-27.81,7.53Z">
    </path>
    <path class="e"
        d="M887.48,228.22l.1-135.5h17.44v82.8l43.9-48.93h22.39l-46.23,50.81,51.66,50.81h-24.13l-47.59-48.93v48.93h-17.54Z">
    </path>
    <g>
        <path class="c"
            d="M1065.51,91.77v21.26c-9.24-9.31-14.95-22.12-14.95-36.27,0-28.44,23.06-51.5,51.5-51.5s51.5,23.06,51.5,51.5c0,2.25-.16,4.47-.44,6.64h-79.81c-4.29,0-7.81,3.77-7.81,8.37Zm0,91.22v-60.5c-5.12-1.71-10.59-2.64-16.28-2.64-28.44,0-51.5,23.06-51.5,51.5s23.06,51.5,51.5,51.5c21.34,0,39.65-12.98,47.46-31.48h-23.37c-4.29,0-7.81-3.77-7.81-8.37Zm129.39,8.37h-93.36c-1.71,5.52-2.64,11.4-2.64,17.48,0,32.55,26.39,58.93,58.93,58.93s58.94-26.39,58.94-58.93c0-14.57-5.3-27.9-14.07-38.19v12.34c0,4.6-3.51,8.37-7.81,8.37Zm31.19-164.39c-33.67,0-61.62,24.37-67.24,56.43h36.06c4.29,0,7.81,3.77,7.81,8.37v67.67c7.29,2.66,15.17,4.11,23.38,4.11,37.71,0,68.29-30.57,68.29-68.29s-30.57-68.29-68.29-68.29Z">
        </path>
        <path class="d"
            d="M1102.06,128.25c26.19,0,47.8-19.55,51.06-44.86h-79.81c-4.29,0-7.81,3.77-7.81,8.37v21.26c9.33,9.4,22.26,15.23,36.55,15.23Z">
        </path>
        <path class="d"
            d="M1065.51,122.48v60.5c0,4.6,3.51,8.37,7.81,8.37h23.37c2.6-6.15,4.04-12.92,4.04-20.02,0-22.75-14.76-42.04-35.22-48.86Z">
        </path>
        <path class="d"
            d="M1157.84,149.91c-26.46,0-48.85,17.44-56.3,41.45h93.36c4.29,0,7.81-3.77,7.81-8.37v-12.34c-10.81-12.69-26.89-20.75-44.87-20.75Z">
        </path>
        <path class="d"
            d="M1194.9,83.4h-36.06c-.67,3.85-1.05,7.81-1.05,11.86,0,29.5,18.71,54.63,44.91,64.18V91.77c0-4.6-3.51-8.37-7.81-8.37Z">
        </path>
    </g>
</svg>